<svg height="384pt" viewBox="0 0 384 384" width="384pt" xmlns="http://www.w3.org/2000/svg">
    <style>
        path {fill:#fff}
    </style>
    <path d="m192 0c-105.871094 0-192 86.128906-192 192 0 105.863281 86.128906 192 192 192s192-86.136719 192-192c0-105.871094-86.128906-192-192-192zm16 351.191406v-15.191406c0-8.832031-7.167969-16-16-16s-16 7.167969-16 16v15.191406c-75.472656-7.527344-135.65625-67.71875-143.191406-143.191406h15.191406c8.832031 0 16-7.167969 16-16s-7.167969-16-16-16h-15.191406c7.535156-75.472656 67.71875-135.65625 143.191406-143.191406v15.191406c0 8.832031 7.167969 16 16 16s16-7.167969 16-16v-15.191406c75.472656 7.535156 135.65625 67.71875 143.191406 143.191406h-15.191406c-8.832031 0-16 7.167969-16 16s7.167969 16 16 16h15.191406c-7.535156 75.472656-67.71875 135.664062-143.191406 143.191406zm0 0"/>
    <path d="m198.632812 184 36.679688-36.6875c6.246094-6.25 6.246094-16.375 0-22.625-6.242188-6.246094-16.382812-6.246094-22.625 0l-48 48c-6.246094 6.25-6.246094 16.375 0 22.625l88 88c3.121094 3.128906 7.214844 4.6875 11.3125 4.6875s8.191406-1.558594 11.3125-4.6875c6.246094-6.25 6.246094-16.375 0-22.625zm0 0"/>
</svg>